Coordinates
version=1
nRows=8
nColumns=63
inDegrees=yes

Units are S.I. units (second, meters, Newtons, ...)
If the header above contains a line with 'inDegrees', this indicates whether rotational values are in degrees (yes) or radians (no).

endheader
time	pelvis_tilt	pelvis_list	pelvis_rotation	pelvis_tx	pelvis_ty	pelvis_tz	hip_flexion_r	hip_adduction_r	hip_rotation_r	knee_angle_r	knee_angle_r_beta	ankle_angle_r	subtalar_angle_r	mtp_angle_r	hip_flexion_l	hip_adduction_l	hip_rotation_l	knee_angle_l	knee_angle_l_beta	ankle_angle_l	subtalar_angle_l	mtp_angle_l	L5_S1_Flex_Ext	L5_S1_Lat_Bending	L5_S1_axial_rotation	L4_L5_Flex_Ext	L4_L5_Lat_Bending	L4_L5_axial_rotation	L3_L4_Flex_Ext	L3_L4_Lat_Bending	L3_L4_axial_rotation	L2_L3_Flex_Ext	L2_L3_Lat_Bending	L2_L3_axial_rotation	L1_L2_Flex_Ext	L1_L2_Lat_Bending	L1_L2_axial_rotation	L1_T12_Flex_Ext	L1_T12_Lat_Bending	L1_T12_axial_rotation	Abs_r3	Abs_r2	Abs_r1	Abs_t1	Abs_t2	neck_flexion	neck_bending	neck_rotation	arm_flex_r	arm_add_r	arm_rot_r	elbow_flex_r	pro_sup_r	wrist_flex_r	wrist_dev_r	arm_flex_l	arm_add_l	arm_rot_l	elbow_flex_l	pro_sup_l	wrist_flex_l	wrist_dev_l
7.216667	-0.794544	4.993342	76.901328	0.255701	0.790309	0.775239	-6.238645	-1.437899	-5.653645	6.140413	0.107170	29.920181	16.655861	0.000000	-8.094328	1.599402	-5.943609	3.375714	0.058917	23.769338	-8.824334	0.000000	0.094821	-0.600484	0.950125	0.176092	-0.798643	1.009508	0.155781	-1.460016	1.009508	0.108371	-1.460016	0.831360	0.088051	-1.224506	0.771977	0.054181	-0.930149	0.712594	0.677296	-6.792792	5.284311	0.000000	0.000000	2.755780	7.183758	-9.513114	30.685133	-25.610902	-26.966960	119.779696	87.646265	5.355472	32.165374	19.486925	-15.642112	-25.315199	123.337032	69.790839	11.253575	-18.323953
7.233333	-0.735654	5.061928	77.280387	0.255587	0.790384	0.774538	-6.510211	-1.321471	-5.964385	5.974835	0.104281	29.797448	16.541377	0.000000	-8.179862	1.495824	-5.405051	3.452810	0.060263	23.638658	-9.133502	0.000000	0.092340	-0.602529	0.887476	0.171484	-0.801363	0.942944	0.151705	-1.464988	0.942944	0.105535	-1.464988	0.776542	0.085747	-1.228676	0.721075	0.052763	-0.933317	0.665607	0.659572	-6.815924	4.935877	0.000000	0.000000	2.683918	7.257027	-9.668094	30.117612	-25.173912	-27.470372	120.520435	87.624269	5.456768	32.089018	19.807033	-15.800094	-24.745487	123.009424	70.165120	10.572022	-17.918849
7.250000	-0.676459	5.113887	77.622966	0.255425	0.790481	0.773964	-6.730537	-1.207149	-6.279106	5.835358	0.101846	29.697662	16.471563	0.000000	-8.252232	1.397592	-4.862629	3.508169	0.061229	23.489676	-9.508217	0.000000	0.090386	-0.602268	0.836100	0.167857	-0.801017	0.888356	0.148496	-1.464355	0.888356	0.103303	-1.464355	0.731587	0.083933	-1.228145	0.679331	0.051647	-0.932913	0.627075	0.645622	-6.812977	4.650135	0.000000	0.000000	2.597791	7.302025	-9.798447	29.600762	-24.767486	-27.981802	121.216313	87.633182	5.550875	32.071161	20.140108	-16.010598	-24.143685	122.746466	70.916753	9.642670	-16.735822
7.266667	-0.615070	5.144937	77.892435	0.255239	0.790595	0.773543	-6.888569	-1.096832	-6.538926	5.726333	0.099943	29.609811	16.419750	0.000000	-8.307282	1.307862	-4.351113	3.547100	0.061909	23.314730	-9.949113	0.000000	0.089527	-0.598989	0.801851	0.166260	-0.796655	0.851967	0.147084	-1.456381	0.851967	0.102320	-1.456381	0.701620	0.083135	-1.221458	0.651504	0.051156	-0.927833	0.601388	0.639482	-6.775879	4.459656	0.000000	0.000000	2.509294	7.294393	-9.922190	29.143888	-24.394064	-28.491853	121.866252	87.670750	5.718401	32.114667	20.488684	-16.264713	-23.523277	122.554619	72.028948	8.559537	-14.762494
7.283333	-0.544795	5.166865	78.079216	0.255025	0.790738	0.773287	-6.989768	-0.990714	-6.743397	5.665147	0.098875	29.544826	16.391409	0.000000	-8.353339	1.221626	-3.950042	3.584954	0.062569	23.135430	-10.341047	0.000000	0.087827	-0.591103	0.786835	0.163103	-0.786167	0.836012	0.144290	-1.437207	0.836012	0.100377	-1.437207	0.688480	0.081556	-1.205377	0.639303	0.050184	-0.915618	0.590126	0.627337	-6.686673	4.376138	0.000000	0.000000	2.412800	7.215998	-9.973210	28.750929	-24.075826	-28.967890	122.480912	87.740949	5.929853	32.223267	20.851389	-16.573253	-22.851716	122.405731	73.399672	7.383623	-12.174260
7.300000	-0.476892	5.173605	78.193546	0.254775	0.790897	0.773169	-7.033681	-0.898388	-6.888624	5.636102	0.098369	29.491674	16.375971	0.000000	-8.380146	1.147077	-3.710921	3.623020	0.063234	22.980013	-10.597675	0.000000	0.087615	-0.579875	0.784028	0.162711	-0.771234	0.833030	0.143943	-1.409908	0.833030	0.100136	-1.409908	0.686025	0.081360	-1.182481	0.637023	0.050063	-0.898227	0.588021	0.625829	-6.559664	4.360531	0.000000	0.000000	2.315293	7.066502	-9.943423	28.432265	-23.782420	-29.369566	123.048115	87.841498	6.211650	32.403669	21.216470	-16.906557	-22.171200	122.352029	74.908642	6.180994	-8.759897
7.316667	-0.399448	5.164115	78.217958	0.254512	0.791062	0.773198	-7.019251	-0.809371	-6.954911	5.641895	0.098470	29.448662	16.374468	0.000000	-8.390549	1.076571	-3.553990	3.655600	0.063802	22.828308	-10.855828	0.000000	0.088132	-0.564152	0.801069	0.163670	-0.750322	0.851136	0.144792	-1.371678	0.851136	0.100726	-1.371678	0.700935	0.081839	-1.150418	0.650869	0.050359	-0.873871	0.600802	0.629518	-6.381795	4.455306	0.000000	0.000000	2.240164	6.833981	-9.884170	28.165367	-23.566800	-29.707672	123.576375	87.966755	6.599169	32.636936	21.608551	-17.255445	-21.407193	122.313600	76.511565	5.051392	-4.949696
7.333333	-0.324392	5.143001	78.154063	0.254260	0.791228	0.773358	-6.955568	-0.735531	-6.937426	5.670439	0.098968	29.413838	16.383638	0.000000	-8.391000	1.023774	-3.443752	3.664087	0.063950	22.674695	-11.161831	0.000000	0.089447	-0.546200	0.838389	0.166112	-0.726446	0.890788	0.146952	-1.328031	0.890788	0.102229	-1.328031	0.733591	0.083060	-1.113811	0.681191	0.051110	-0.846064	0.628792	0.638909	-6.178724	4.662869	0.000000	0.000000	2.201670	6.566099	-9.800055	27.943155	-23.429625	-29.971937	124.047570	88.100559	7.093318	32.891373	22.047578	-17.605743	-20.556438	122.238553	78.232353	4.149032	-1.009733
